<svg width="100" height="39" viewBox="0 0 100 39" fill="none" xmlns="http://www.w3.org/2000/svg">
<path d="M14.519 28.512C12.471 28.512 10.6577 28.1387 9.079 27.392C7.50033 26.624 6.263 25.568 5.367 24.224C4.49233 22.88 4.055 21.344 4.055 19.616V4.672C4.055 4.18133 4.215 3.78667 4.535 3.488C4.855 3.168 5.24966 3.008 5.719 3.008C6.20966 3.008 6.60433 3.168 6.903 3.488C7.223 3.78667 7.383 4.18133 7.383 4.672V19.616C7.383 20.768 7.68166 21.792 8.279 22.688C8.89766 23.5627 9.74033 24.256 10.807 24.768C11.895 25.2587 13.1323 25.504 14.519 25.504C15.863 25.504 17.047 25.2587 18.071 24.768C19.1163 24.256 19.927 23.5627 20.503 22.688C21.1003 21.792 21.399 20.768 21.399 19.616V4.672C21.399 4.18133 21.559 3.78667 21.879 3.488C22.199 3.168 22.5937 3.008 23.063 3.008C23.5537 3.008 23.9483 3.168 24.247 3.488C24.5457 3.78667 24.695 4.18133 24.695 4.672V19.616C24.695 21.344 24.2577 22.88 23.383 24.224C22.5297 25.568 21.335 26.624 19.799 27.392C18.263 28.1387 16.503 28.512 14.519 28.512ZM31.7902 28C31.3209 28 30.9262 27.84 30.6062 27.52C30.2862 27.2 30.1262 26.8053 30.1262 26.336V4.672C30.1262 4.18133 30.2862 3.78667 30.6062 3.488C30.9262 3.168 31.3209 3.008 31.7902 3.008C32.2809 3.008 32.6756 3.168 32.9742 3.488C33.2942 3.78667 33.4542 4.18133 33.4542 4.672V26.336C33.4542 26.8053 33.2942 27.2 32.9742 27.52C32.6756 27.84 32.2809 28 31.7902 28Z" fill="#5DCCA2"/>
<path d="M35.8334 25.1062C35.8334 25.1062 41.0143 25.563 43.3334 27.5783C44.5557 28.6405 44.378 30.155 45.8334 30.8745C47.2888 31.5941 48.4537 31.3755 50 30.8745C53.5967 29.7094 52.0474 25.3228 54.1667 22.222C56.286 19.1212 55.6479 18.1331 57.9167 17.6897C59.5833 17.3641 60.6876 17.9681 62.0834 18.9258C63.8264 20.1218 65 23.4581 65 23.4581L68.3334 30.8745C68.3334 30.8745 68.9998 33.3446 70 34.5828C70.7932 35.5647 71.2859 36.2716 72.5 36.6429C73.4328 36.9282 72.2753 37.2787 75 36.6429C77.7247 36.0072 77.4381 33.4383 79.1667 30.8745C80.8953 28.3108 81.9312 26.0192 83.75 23.4581C85.5688 20.8969 85.9444 18.6728 88.3334 17.6897C90.7224 16.7067 94.1667 17.6897 94.1667 17.6897" stroke="#5DCCA2" stroke-width="3"/>
<ellipse cx="95.8333" cy="17.3051" rx="4.16667" ry="4.12026" fill="#5DCCA2"/>
<ellipse cx="95.8333" cy="17.3051" rx="4.16667" ry="4.12026" fill="#5DCCA2"/>
</svg>
